<svg xmlns="http://www.w3.org/2000/svg" width="16" height="16" fill="currentColor" viewBox="0 0 16 16">
  <path d="M8 16a4 4 0 0 0 4-4 4 4 0 0 0 0-8 4 4 0 0 0-8 0 4 4 0 0 0 0 8 4 4 0 0 0 4 4m3-12c0 .073-.01.155-.03.22l-.015.07a1 1 0 0 0-.09.27 1 1 0 0 1 .09-.27l.015-.07c.02-.065.03-.147.03-.22M8 1a3 3 0 0 1 2.13.886l-.006-.005A1 1 0 0 0 9.5 3.5a1 1 0 0 0 2 0 3 3 0 0 1 .886 2.13l-.005-.006A1 1 0 0 0 14 5.5a1 1 0 0 0-2 0 1 1 0 0 0 .617.924 3 3 0 0 1 0 3.152A1 1 0 0 0 12 9.5a1 1 0 0 0 2 0 1 1 0 0 0-1.624-.624 3 3 0 0 1-2.13.886A1 1 0 0 0 9.5 11.5a1 1 0 0 0-2 0 1 1 0 0 0-.924-.617 3 3 0 0 1-3.152 0A1 1 0 0 0 4 11.5a1 1 0 0 0-2 0 3 3 0 0 1 .886-2.13A1 1 0 0 0 1.5 10.5a1 1 0 0 0 0-2 1 1 0 0 0 .617-.924 3 3 0 0 1 0-3.152A1 1 0 0 0 2.5 5.5a1 1 0 0 0 0-2 3 3 0 0 1 2.13-.886A1 1 0 0 0 5.5 4.5a1 1 0 0 0 0-2A3 3 0 0 1 8 1"/>
</svg>
